<svg xmlns="http://www.w3.org/2000/svg" width="24" height="24" fill="none"><mask id="a" width="17" height="20" x="3.5" y="2.5" fill="#000" maskUnits="userSpaceOnUse"><path fill="#fff" d="M3.5 2.5h17v20h-17z"/><path fill-rule="evenodd" d="M7.635 6.928 5.354 4.646a.5.5 0 1 0-.708.708l14 14a.5.5 0 0 0 .708-.708l-.872-.871A7.47 7.47 0 0 0 19.5 14c0-2.682-1.597-5.298-3.247-7.202a17.7 17.7 0 0 0-2.43-2.333 8.4 8.4 0 0 0-.99-.676 3 3 0 0 0-.41-.199c-.121-.046-.27-.09-.423-.09s-.302.044-.422.09q-.196.076-.412.2a8.4 8.4 0 0 0-.989.675 17.7 17.7 0 0 0-2.542 2.463m.71.71 9.402 9.402c.48-.907.753-1.942.753-3.04 0-2.318-1.403-4.702-3.003-6.548a17 17 0 0 0-2.288-2.198 7.4 7.4 0 0 0-.867-.594 2 2 0 0 0-.277-.136L12 4.503l-.065.021q-.102.039-.277.136a7.4 7.4 0 0 0-.867.594 16.8 16.8 0 0 0-2.446 2.384M6.3 8.714l.724.724C6.129 10.868 5.5 12.448 5.5 14a6.5 6.5 0 0 0 10.884 4.799l.708.707A7.5 7.5 0 0 1 4.5 14c0-1.867.773-3.701 1.8-5.286" clip-rule="evenodd"/></mask><path fill="#000" fill-rule="evenodd" d="M7.635 6.928 5.354 4.646a.5.5 0 1 0-.708.708l14 14a.5.5 0 0 0 .708-.708l-.872-.871A7.47 7.47 0 0 0 19.5 14c0-2.682-1.597-5.298-3.247-7.202a17.7 17.7 0 0 0-2.43-2.333 8.4 8.4 0 0 0-.99-.676 3 3 0 0 0-.41-.199c-.121-.046-.27-.09-.423-.09s-.302.044-.422.09q-.196.076-.412.2a8.4 8.4 0 0 0-.989.675 17.7 17.7 0 0 0-2.542 2.463m.71.71 9.402 9.402c.48-.907.753-1.942.753-3.04 0-2.318-1.403-4.702-3.003-6.548a17 17 0 0 0-2.288-2.198 7.4 7.4 0 0 0-.867-.594 2 2 0 0 0-.277-.136L12 4.503l-.065.021q-.102.039-.277.136a7.4 7.4 0 0 0-.867.594 16.8 16.8 0 0 0-2.446 2.384M6.3 8.714l.724.724C6.129 10.868 5.5 12.448 5.5 14a6.5 6.5 0 0 0 10.884 4.799l.708.707A7.5 7.5 0 0 1 4.5 14c0-1.867.773-3.701 1.8-5.286" clip-rule="evenodd"/><path fill="#000" fill-rule="evenodd" d="M7.635 6.928 5.354 4.646a.5.5 0 1 0-.708.708l14 14a.5.5 0 0 0 .708-.708l-.872-.871A7.47 7.47 0 0 0 19.5 14c0-2.682-1.597-5.298-3.247-7.202a17.7 17.7 0 0 0-2.43-2.333 8.4 8.4 0 0 0-.99-.676 3 3 0 0 0-.41-.199c-.121-.046-.27-.09-.423-.09s-.302.044-.422.09q-.196.076-.412.2a8.4 8.4 0 0 0-.989.675 17.7 17.7 0 0 0-2.542 2.463m.71.71 9.402 9.402c.48-.907.753-1.942.753-3.04 0-2.318-1.403-4.702-3.003-6.548a17 17 0 0 0-2.288-2.198 7.4 7.4 0 0 0-.867-.594 2 2 0 0 0-.277-.136L12 4.503l-.065.021q-.102.039-.277.136a7.4 7.4 0 0 0-.867.594 16.8 16.8 0 0 0-2.446 2.384M6.3 8.714l.724.724C6.129 10.868 5.5 12.448 5.5 14a6.5 6.5 0 0 0 10.884 4.799l.708.707A7.5 7.5 0 0 1 4.5 14c0-1.867.773-3.701 1.8-5.286" clip-rule="evenodd"/><path fill="#fff" fill-opacity=".5" d="m5.354 4.646-.708.708zm2.281 2.282-.707.707a1 1 0 0 0 1.469-.059zM4.646 4.646 3.94 3.94zm0 .708.708-.708zm14 14-.707.707zm.708 0 .707.707zm0-.708.707-.707zm-.872-.871-.864-.504a1 1 0 0 0 .157 1.211zm-2.23-10.977-.755.654zm-2.43-2.333.615-.79zm-.988-.676.49-.871zm-.412-.199-.357.934zm-.844 0 .357.934zm-.412.2.492.87zm-.989.675.614.79zm-2.43 2.333-.756-.655zm.598.84-.765-.645a1 1 0 0 0 .058 1.352zm9.402 9.402-.707.707a1 1 0 0 0 1.59-.239zm-2.25-9.588.756-.654zM13.21 5.254l-.614.79zm-.867-.594-.49.871zm-.277-.136.357-.934zM12 4.503l.255-.967a1 1 0 0 0-.51 0zm-.065.021-.357-.934zm-.277.136.49.871zm-.867.594-.614-.79zM8.503 7.452l-.756-.654zM7.024 9.438l.848.531a1 1 0 0 0-.14-1.238zM6.3 8.714l.707-.707a1 1 0 0 0-1.547.163zm10.084 10.085.708-.707a1 1 0 0 0-1.382-.031zm.708.707.68.734a1 1 0 0 0 .027-1.44zM4.646 5.354l2.282 2.281 1.414-1.414-2.281-2.282zm.708 0a.5.5 0 0 1-.708 0l1.415-1.415a1.5 1.5 0 0 0-2.122 0zm0-.708a.5.5 0 0 1 0 .708L3.939 3.939a1.5 1.5 0 0 0 0 2.122zm14 14-14-14-1.415 1.415 14 14zm-.708 0a.5.5 0 0 1 .708 0l-1.415 1.415a1.5 1.5 0 0 0 2.122 0zm0 .708a.5.5 0 0 1 0-.708l1.415 1.415a1.5 1.5 0 0 0 0-2.122zm-.871-.872.871.872 1.415-1.415-.872-.871zm1.57-.203A8.47 8.47 0 0 0 20.5 14h-2a6.47 6.47 0 0 1-.882 3.27zM20.5 14c0-3.047-1.79-5.895-3.491-7.857l-1.512 1.31c1.6 1.845 3.003 4.23 3.003 6.547zm-3.491-7.857a18.7 18.7 0 0 0-2.572-2.468l-1.228 1.58a17 17 0 0 1 2.288 2.197zm-2.572-2.468a9 9 0 0 0-1.112-.757l-.983 1.742c.232.13.528.33.867.594zm-1.112-.757a4 4 0 0 0-.545-.262l-.715 1.868q.103.039.277.136zm-.545-.262A2.2 2.2 0 0 0 12 2.5v2q-.03-.002-.006.001.022.005.07.023zM12 2.5c-.332 0-.615.093-.78.156l.715 1.868.071-.023Q12.03 4.498 12 4.5zm-.78.156a4 4 0 0 0-.545.262l.983 1.742a2 2 0 0 1 .277-.136zm-.545.262a9 9 0 0 0-1.112.757l1.228 1.58a7.4 7.4 0 0 1 .867-.595zm-1.112.757a18.7 18.7 0 0 0-2.572 2.468l1.512 1.31a17 17 0 0 1 2.288-2.199zM6.991 6.143l-.118.137 1.524 1.296.106-.124zm.647 2.202 9.402 9.402 1.414-1.414L9.052 6.93zM17.5 14c0 .931-.23 1.805-.637 2.572l1.767.936A7.5 7.5 0 0 0 19.5 14zm-2.758-5.893C16.29 9.895 17.5 12.047 17.5 14h2c0-2.682-1.597-5.298-3.247-7.202zm-2.147-2.064a16 16 0 0 1 2.146 2.064l1.512-1.31a17.7 17.7 0 0 0-2.43-2.332zm-.744-.512c.176.1.43.268.744.512l1.228-1.578a8.4 8.4 0 0 0-.99-.676zm-.144-.073c.009.003.055.023.144.073l.982-1.742a3 3 0 0 0-.41-.199zm.038.012-.035-.01-.003-.002.715-1.868a2 2 0 0 0-.167-.054zm.548-.012-.003.001-.035.01-.51-1.933q-.072.019-.167.054zm-.144.073c.089-.05.135-.07.144-.073l-.715-1.868q-.196.076-.412.2zm-.744.512c.314-.244.568-.412.744-.512l-.982-1.742a8.4 8.4 0 0 0-.99.676zM9.26 8.107a16 16 0 0 1 2.146-2.064l-1.228-1.578a17.7 17.7 0 0 0-2.43 2.333zm-.15.175.15-.175-1.512-1.31-.167.196zm-1.378.45-.724-.725L5.593 9.42l.724.724zM6.5 14c0-1.292.53-2.687 1.372-4.03L6.177 8.906C5.227 10.422 4.5 12.19 4.5 14zm5.5 5.5A5.5 5.5 0 0 1 6.5 14h-2a7.5 7.5 0 0 0 7.5 7.5zm3.71-1.44A5.48 5.48 0 0 1 12 19.5v2a7.48 7.48 0 0 0 5.06-1.963zm2.09.74-.708-.708-1.415 1.414.708.707zM12 22.5a8.47 8.47 0 0 0 5.771-2.26l-1.358-1.468A6.47 6.47 0 0 1 12 20.5zM3.5 14a8.5 8.5 0 0 0 8.5 8.5v-2A6.5 6.5 0 0 1 5.5 14zm1.96-5.83C4.378 9.84 3.5 11.866 3.5 14h2c0-1.6.668-3.243 1.64-4.742z" mask="url(#a)"/></svg>