<svg xmlns="http://www.w3.org/2000/svg" width="24" height="24" fill="none"><path fill="#000" fill-rule="evenodd" d="M8.503 7.452C6.903 9.298 5.5 11.682 5.5 14a6.5 6.5 0 1 0 13 0c0-2.318-1.403-4.702-3.003-6.548a17 17 0 0 0-2.288-2.198 7.4 7.4 0 0 0-.867-.594 2 2 0 0 0-.277-.136L12 4.503l-.065.021q-.102.039-.277.136a7.4 7.4 0 0 0-.867.594 17 17 0 0 0-2.288 2.198m3.075-3.862c.12-.046.27-.09.422-.09s.302.044.422.09q.196.076.412.2c.287.161.624.391.989.675.73.567 1.597 1.371 2.43 2.333C17.903 8.702 19.5 11.318 19.5 14a7.5 7.5 0 0 1-15 0c0-2.682 1.597-5.298 3.247-7.202a17.7 17.7 0 0 1 2.43-2.333c.365-.284.702-.514.99-.676.143-.08.282-.15.41-.199" clip-rule="evenodd"/><path stroke="#fff" stroke-linecap="round" stroke-linejoin="round" stroke-opacity=".5" d="M6 14c0-2.135 1.306-4.403 2.88-6.22a16.3 16.3 0 0 1 2.218-2.131 7 7 0 0 1 .805-.553L12 5.044q.042.02.097.052c.204.115.478.299.805.553.65.505 1.446 1.241 2.217 2.13C16.694 9.598 18 11.866 18 14a6 6 0 0 1-12 0m6-11a1.7 1.7 0 0 0-.6.123 4 4 0 0 0-.48.23 9 9 0 0 0-1.05.717 18 18 0 0 0-2.5 2.4C5.693 8.403 4 11.135 4 14a8 8 0 1 0 16 0c0-2.865-1.694-5.597-3.37-7.53a18 18 0 0 0-2.5-2.4 9 9 0 0 0-1.05-.716 4 4 0 0 0-.48-.23A1.7 1.7 0 0 0 12 3"/></svg>