<svg xmlns="http://www.w3.org/2000/svg" width="24" height="24" fill="none"><mask id="a" width="23" height="17" x=".5" y="3.5" fill="#000" maskUnits="userSpaceOnUse"><path fill="#fff" d="M.5 3.5h23v17H.5z"/><path fill-rule="evenodd" d="M2.5 12q-.001.003.004.029a1 1 0 0 0 .024.09q.037.116.124.296c.118.24.3.54.541.881.484.68 1.19 1.49 2.068 2.267C7.025 17.127 9.41 18.5 12 18.5s4.975-1.373 6.74-2.937a14 14 0 0 0 2.067-2.267c.242-.34.423-.64.541-.88q.089-.182.124-.297A1 1 0 0 0 21.5 12q.001-.003-.004-.029a1 1 0 0 0-.024-.09 2 2 0 0 0-.124-.296c-.118-.24-.3-.54-.541-.881-.484-.68-1.19-1.49-2.068-2.267C16.975 6.873 14.59 5.5 12 5.5S7.025 6.873 5.26 8.437a14 14 0 0 0-2.067 2.267c-.242.34-.423.64-.541.88q-.089.182-.124.297A1 1 0 0 0 2.5 12m2.097-4.312C6.452 6.044 9.067 4.5 12 4.5c2.934 0 5.548 1.544 7.403 3.188.932.827 1.69 1.694 2.219 2.436.264.371.475.718.624 1.02.138.281.254.588.254.856s-.116.575-.254.856c-.149.302-.36.649-.624 1.02a15 15 0 0 1-2.22 2.436C17.549 17.956 14.935 19.5 12 19.5s-5.548-1.544-7.403-3.188a15 15 0 0 1-2.219-2.436 7.6 7.6 0 0 1-.624-1.02c-.138-.281-.254-.588-.254-.856s.116-.575.254-.856c.149-.302.36-.649.624-1.02a15 15 0 0 1 2.22-2.436M12 9.5a2.5 2.5 0 1 0 0 5 2.5 2.5 0 0 0 0-5M8.5 12a3.5 3.5 0 1 1 7 0 3.5 3.5 0 0 1-7 0" clip-rule="evenodd"/></mask><path fill="#fff" fill-opacity=".2" fill-rule="evenodd" d="M2.5 12q-.001.003.004.029a1 1 0 0 0 .024.09q.037.116.124.296c.118.24.3.54.541.881.484.68 1.19 1.49 2.068 2.267C7.025 17.127 9.41 18.5 12 18.5s4.975-1.373 6.74-2.937a14 14 0 0 0 2.067-2.267c.242-.34.423-.64.541-.88q.089-.182.124-.297A1 1 0 0 0 21.5 12q.001-.003-.004-.029a1 1 0 0 0-.024-.09 2 2 0 0 0-.124-.296c-.118-.24-.3-.54-.541-.881-.484-.68-1.19-1.49-2.068-2.267C16.975 6.873 14.59 5.5 12 5.5S7.025 6.873 5.26 8.437a14 14 0 0 0-2.067 2.267c-.242.34-.423.64-.541.88q-.089.182-.124.297A1 1 0 0 0 2.5 12m2.097-4.312C6.452 6.044 9.067 4.5 12 4.5c2.934 0 5.548 1.544 7.403 3.188.932.827 1.69 1.694 2.219 2.436.264.371.475.718.624 1.02.138.281.254.588.254.856s-.116.575-.254.856c-.149.302-.36.649-.624 1.02a15 15 0 0 1-2.22 2.436C17.549 17.956 14.935 19.5 12 19.5s-5.548-1.544-7.403-3.188a15 15 0 0 1-2.219-2.436 7.6 7.6 0 0 1-.624-1.02c-.138-.281-.254-.588-.254-.856s.116-.575.254-.856c.149-.302.36-.649.624-1.02a15 15 0 0 1 2.22-2.436M12 9.5a2.5 2.5 0 1 0 0 5 2.5 2.5 0 0 0 0-5M8.5 12a3.5 3.5 0 1 1 7 0 3.5 3.5 0 0 1-7 0" clip-rule="evenodd"/><path fill="#000" fill-rule="evenodd" d="M2.5 12q-.001.003.004.029a1 1 0 0 0 .024.09q.037.116.124.296c.118.24.3.54.541.881.484.68 1.19 1.49 2.068 2.267C7.025 17.127 9.41 18.5 12 18.5s4.975-1.373 6.74-2.937a14 14 0 0 0 2.067-2.267c.242-.34.423-.64.541-.88q.089-.182.124-.297A1 1 0 0 0 21.5 12q.001-.003-.004-.029a1 1 0 0 0-.024-.09 2 2 0 0 0-.124-.296c-.118-.24-.3-.54-.541-.881-.484-.68-1.19-1.49-2.068-2.267C16.975 6.873 14.59 5.5 12 5.5S7.025 6.873 5.26 8.437a14 14 0 0 0-2.067 2.267c-.242.34-.423.64-.541.88q-.089.182-.124.297A1 1 0 0 0 2.5 12m2.097-4.312C6.452 6.044 9.067 4.5 12 4.5c2.934 0 5.548 1.544 7.403 3.188.932.827 1.69 1.694 2.219 2.436.264.371.475.718.624 1.02.138.281.254.588.254.856s-.116.575-.254.856c-.149.302-.36.649-.624 1.02a15 15 0 0 1-2.22 2.436C17.549 17.956 14.935 19.5 12 19.5s-5.548-1.544-7.403-3.188a15 15 0 0 1-2.219-2.436 7.6 7.6 0 0 1-.624-1.02c-.138-.281-.254-.588-.254-.856s.116-.575.254-.856c.149-.302.36-.649.624-1.02a15 15 0 0 1 2.22-2.436M12 9.5a2.5 2.5 0 1 0 0 5 2.5 2.5 0 0 0 0-5M8.5 12a3.5 3.5 0 1 1 7 0 3.5 3.5 0 0 1-7 0" clip-rule="evenodd"/><path fill="#fff" fill-opacity=".5" d="m2.504 12.029-.982.188zM2.5 12l-.998-.056a1 1 0 0 0 0 .112zm.028.119.952-.305zm.124.296.897-.44zm.541.881.815-.58zm2.068 2.267.663-.748zm13.478 0-.663-.748zm2.068-2.267.815.58zm.541-.88.898.44zm.124-.297-.952-.305zm.024-.09.982.188zM21.5 12l.998.056a1 1 0 0 0 0-.113zm-.004-.029.982-.187zm-.024-.09-.952.305zm-.124-.296.898-.441zm-.541-.881.815-.58zm-2.068-2.267-.663.748zm-13.478 0 .663.748zm-2.068 2.267-.815-.58zm-.541.88.897.442zm-.124.297.952.305zm-.024.09-.982-.187zm2.093-4.283.664.749zm14.806 0-.664.749zm2.219 2.436-.815.58zm.624 1.02-.898.44zm0 1.712-.898-.44zm-.624 1.02-.815-.58zm-2.22 2.436-.663-.749zm-14.805 0-.663.748zm-2.219-2.436-.814.58zm-.624-1.02-.897.441zm0-1.712-.897-.441zm.624-1.02.815.58zm1.108 1.717a1 1 0 0 1 .012.103l-1.996.112q.002.07.02.16zm-.006-.027v.001l.006.026-1.964.376q.02.103.053.206zm.07.16a1 1 0 0 1-.07-.16l-1.905.61q.067.205.18.432zm.458.742c-.22-.31-.37-.562-.459-.742l-1.795.882c.149.302.36.649.624 1.02zm1.916 2.099a13 13 0 0 1-1.916-2.099l-1.63 1.16c.53.742 1.287 1.61 2.22 2.436zM12 17.5c-2.244 0-4.402-1.201-6.076-2.685l-1.327 1.497C6.452 17.956 9.067 19.5 12 19.5zm6.076-2.685C16.402 16.299 14.244 17.5 12 17.5v2c2.934 0 5.548-1.544 7.403-3.188zm1.916-2.099a13 13 0 0 1-1.916 2.099l1.327 1.497a15 15 0 0 0 2.219-2.436zm.459-.742a5.6 5.6 0 0 1-.459.742l1.63 1.16c.264-.371.475-.718.624-1.02zm.069-.16a1 1 0 0 1-.07.16l1.796.882q.112-.226.179-.433zm-.006.027.005-.026q.002-.006 0 0l1.906.608q.033-.104.053-.207zm-.012.103a1 1 0 0 1 .012-.103l1.964.375q.018-.09.02-.16zm.012.215a1 1 0 0 1-.012-.102l1.996-.114a1 1 0 0 0-.02-.16zm.006.027v-.001l-.006-.026 1.964-.376a2 2 0 0 0-.053-.206zm-.07-.16a1 1 0 0 1 .07.16l1.905-.61a3 3 0 0 0-.18-.432zm-.458-.742c.22.31.37.562.459.742l1.795-.882a7.6 7.6 0 0 0-.624-1.02zm-1.916-2.099a13 13 0 0 1 1.916 2.099l1.63-1.16a15 15 0 0 0-2.22-2.436zM12 6.5c2.244 0 4.402 1.201 6.076 2.685l1.327-1.497C17.548 6.044 14.933 4.5 12 4.5zM5.924 9.185C7.598 7.701 9.756 6.5 12 6.5v-2c-2.934 0-5.548 1.544-7.403 3.188zm-1.916 2.099a13 13 0 0 1 1.916-2.099L4.597 7.688a15 15 0 0 0-2.219 2.436zm-.459.742c.089-.18.239-.433.459-.742l-1.63-1.16a8 8 0 0 0-.624 1.02zm-.069.16a1 1 0 0 1 .07-.16l-1.796-.882a3 3 0 0 0-.179.433zm.006-.027-.005.026q-.002.006 0 0l-1.906-.608q-.033.103-.053.207zm.012-.103a1 1 0 0 1-.012.103l-1.964-.376q-.018.091-.02.16zM12 3.5c-3.279 0-6.121 1.716-8.066 3.44L5.26 8.437C7.025 6.872 9.41 5.5 12 5.5zm8.066 3.44C18.121 5.216 15.28 3.5 12 3.5v2c2.589 0 4.975 1.372 6.74 2.937zm2.37 2.604a16 16 0 0 0-2.37-2.604L18.74 8.437a14 14 0 0 1 2.068 2.267zm.707 1.159a8.6 8.6 0 0 0-.707-1.159l-1.63 1.16c.243.34.424.64.542.88zM23.5 12c0-.512-.208-.994-.357-1.297l-1.795.882q.084.172.124.295c.027.087.028.123.028.12zm-.357 1.297c.15-.303.357-.785.357-1.297h-2c0-.003 0 .033-.028.12a2 2 0 0 1-.124.295zm-.707 1.159c.286-.402.529-.796.707-1.159l-1.795-.882c-.118.24-.3.54-.541.881zm-2.37 2.604a16 16 0 0 0 2.37-2.604l-1.63-1.16c-.483.68-1.19 1.49-2.067 2.267zM12 20.5c3.279 0 6.121-1.716 8.066-3.44l-1.327-1.497C16.975 17.128 14.59 18.5 12 18.5zm-8.066-3.44C5.879 18.784 8.72 20.5 12 20.5v-2c-2.589 0-4.975-1.372-6.74-2.937zm-2.37-2.604a16 16 0 0 0 2.37 2.604l1.327-1.497a14 14 0 0 1-2.068-2.267zm-.707-1.159c.178.363.42.757.707 1.159l1.63-1.16a6.6 6.6 0 0 1-.542-.88zM.5 12c0 .512.208.994.357 1.297l1.795-.882a2 2 0 0 1-.124-.295c-.027-.087-.028-.123-.028-.12zm.357-1.297C.707 11.006.5 11.488.5 12h2c0 .003 0-.033.028-.12q.04-.123.124-.295zm.707-1.159a8.6 8.6 0 0 0-.707 1.159l1.795.882c.118-.24.3-.54.541-.881zm2.37-2.604a16 16 0 0 0-2.37 2.604l1.63 1.16c.483-.68 1.19-1.49 2.067-2.267zM10.5 12a1.5 1.5 0 0 1 1.5-1.5v-2A3.5 3.5 0 0 0 8.5 12zm1.5 1.5a1.5 1.5 0 0 1-1.5-1.5h-2a3.5 3.5 0 0 0 3.5 3.5zm1.5-1.5a1.5 1.5 0 0 1-1.5 1.5v2a3.5 3.5 0 0 0 3.5-3.5zM12 10.5a1.5 1.5 0 0 1 1.5 1.5h2A3.5 3.5 0 0 0 12 8.5zm0-3A4.5 4.5 0 0 0 7.5 12h2A2.5 2.5 0 0 1 12 9.5zm4.5 4.5A4.5 4.5 0 0 0 12 7.5v2a2.5 2.5 0 0 1 2.5 2.5zM12 16.5a4.5 4.5 0 0 0 4.5-4.5h-2a2.5 2.5 0 0 1-2.5 2.5zM7.5 12a4.5 4.5 0 0 0 4.5 4.5v-2A2.5 2.5 0 0 1 9.5 12z" mask="url(#a)"/></svg>