<svg xmlns="http://www.w3.org/2000/svg" width="24" height="24" fill="none"><path fill="#000" fill-rule="evenodd" d="M2 11.5a.5.5 0 0 1 .5.5l.004.029a1 1 0 0 0 .024.09q.037.116.124.296c.118.24.3.54.541.881.484.68 1.19 1.49 2.068 2.267C7.025 17.127 9.41 18.5 12 18.5s4.975-1.373 6.74-2.937a14 14 0 0 0 2.067-2.267c.242-.34.423-.64.541-.88q.089-.182.124-.297a1 1 0 0 0 .024-.09l.004-.03a.5.5 0 1 1 1 .001c0 .268-.116.575-.254.856-.149.302-.36.649-.624 1.02a15 15 0 0 1-2.22 2.436C17.549 17.956 14.935 19.5 12 19.5s-5.548-1.544-7.403-3.188a15 15 0 0 1-2.219-2.436 7.6 7.6 0 0 1-.624-1.02c-.138-.281-.254-.588-.254-.856a.5.5 0 0 1 .5-.5" clip-rule="evenodd"/><path fill="#000" fill-rule="evenodd" d="M15.776 17.553a.5.5 0 0 1 .671.223l1 2a.5.5 0 1 1-.894.448l-1-2a.5.5 0 0 1 .223-.671" clip-rule="evenodd"/><path fill="#000" fill-rule="evenodd" d="M15.776 17.553a.5.5 0 0 1 .671.223l1 2a.5.5 0 1 1-.894.448l-1-2a.5.5 0 0 1 .223-.671m3.37-2.407a.5.5 0 0 1 .708 0l1.5 1.5a.5.5 0 0 1-.708.708l-1.5-1.5a.5.5 0 0 1 0-.708" clip-rule="evenodd"/><path fill="#000" fill-rule="evenodd" d="M19.146 15.146a.5.5 0 0 1 .708 0l1.5 1.5a.5.5 0 0 1-.708.708l-1.5-1.5a.5.5 0 0 1 0-.708M8.224 17.553a.5.5 0 0 0-.671.223l-1 2a.5.5 0 1 0 .894.448l1-2a.5.5 0 0 0-.223-.671" clip-rule="evenodd"/><path fill="#000" fill-rule="evenodd" d="M8.224 17.553a.5.5 0 0 0-.671.223l-1 2a.5.5 0 1 0 .894.448l1-2a.5.5 0 0 0-.223-.671m-3.37-2.407a.5.5 0 0 0-.708 0l-1.5 1.5a.5.5 0 0 0 .708.708l1.5-1.5a.5.5 0 0 0 0-.708" clip-rule="evenodd"/><path fill="#000" fill-rule="evenodd" d="M4.854 15.146a.5.5 0 0 0-.708 0l-1.5 1.5a.5.5 0 0 0 .708.708l1.5-1.5a.5.5 0 0 0 0-.708" clip-rule="evenodd"/><path stroke="#fff" stroke-linecap="round" stroke-linejoin="round" stroke-opacity=".5" d="M1.971 14.166c.3.422.67.88 1.1 1.348l-.778.779a1 1 0 1 0 1.414 1.414l.806-.806a15.3 15.3 0 0 0 2.15 1.536l-.557 1.116a1 1 0 1 0 1.788.894l.569-1.136C9.56 19.736 10.75 20 12 20s2.439-.264 3.537-.69l.569 1.137a1 1 0 1 0 1.788-.894l-.558-1.116a15 15 0 0 0 2.15-1.536l.807.806a1 1 0 0 0 1.414-1.414l-.779-.779c.43-.467.8-.926 1.1-1.348a8 8 0 0 0 .666-1.09c.144-.292.306-.686.306-1.076a1 1 0 0 0-1.999-.052l-.005.018h0a2 2 0 0 1-.097.229c-.103.21-.268.486-.5.811-.348.49-.822 1.055-1.399 1.627a1 1 0 0 0-.345.332q-.12.113-.247.224c-.79.7-1.696 1.35-2.68 1.848a1 1 0 0 0-.317.154C14.341 17.69 13.188 18 12 18s-2.342-.311-3.411-.809a1 1 0 0 0-.317-.154 12.8 12.8 0 0 1-2.927-2.072A1 1 0 0 0 5 14.633a13 13 0 0 1-1.4-1.627 6 6 0 0 1-.5-.811 2 2 0 0 1-.1-.247A1 1 0 0 0 1 12c0 .39.162.784.306 1.077.163.332.39.703.665 1.089M2.5 12h.156l-.152.029z"/></svg>