<svg xmlns="http://www.w3.org/2000/svg" width="24" height="24" fill="none"><path fill="#000" fill-rule="evenodd" d="M5.854 3.146a.5.5 0 1 0-.708.708l14 14a.5.5 0 0 0 .708-.708l-.654-.653q.107-.091.21-.184a14.6 14.6 0 0 0 2.226-2.469 7.5 7.5 0 0 0 .626-1.053c.141-.298.252-.614.252-.892 0-.287-.124-.606-.275-.899-.16-.31-.387-.66-.666-1.029-.56-.74-1.355-1.587-2.31-2.39C17.362 5.982 14.747 4.5 12 4.5c-1.353 0-2.673.354-3.89.902zM8.87 6.163l2.41 2.41q.35-.073.72-.073a3.5 3.5 0 0 1 3.426 4.219l3.065 3.065.254-.222a13.5 13.5 0 0 0 2.07-2.294c.243-.347.424-.656.543-.907.126-.268.156-.418.156-.466 0-.038-.029-.178-.164-.44a6.3 6.3 0 0 0-.574-.884c-.512-.676-1.254-1.47-2.157-2.229C16.8 6.815 14.41 5.5 12 5.5c-1.064 0-2.123.252-3.13.663m3.345 3.346a2.5 2.5 0 0 1 2.275 2.275z" clip-rule="evenodd"/><path fill="#000" fill-rule="evenodd" d="M5.854 3.146a.5.5 0 1 0-.708.708l14 14a.5.5 0 0 0 .708-.708l-.654-.653q.107-.091.21-.184a14.6 14.6 0 0 0 2.226-2.469 7.5 7.5 0 0 0 .626-1.053c.141-.298.252-.614.252-.892 0-.287-.124-.606-.275-.899-.16-.31-.387-.66-.666-1.029-.56-.74-1.355-1.587-2.31-2.39C17.362 5.982 14.747 4.5 12 4.5c-1.353 0-2.673.354-3.89.902zM8.87 6.163l2.41 2.41q.35-.073.72-.073a3.5 3.5 0 0 1 3.426 4.219l3.065 3.065.254-.222a13.5 13.5 0 0 0 2.07-2.294c.243-.347.424-.656.543-.907.126-.268.156-.418.156-.466 0-.038-.029-.178-.164-.44a6.3 6.3 0 0 0-.574-.884c-.512-.676-1.254-1.47-2.157-2.229C16.8 6.815 14.41 5.5 12 5.5c-1.064 0-2.123.252-3.13.663m3.345 3.346a2.5 2.5 0 0 1 2.275 2.275z" clip-rule="evenodd"/><path fill="#000" d="M6.108 6.522a16 16 0 0 0-1.356 1.019c-.953.797-1.745 1.643-2.303 2.388a7 7 0 0 0-.665 1.046c-.152.303-.27.627-.27.92 0 .284.106.606.248.915.148.322.36.685.624 1.068.528.766 1.286 1.64 2.218 2.467C6.459 17.99 9.069 19.5 12 19.5c1.993 0 3.84-.71 5.403-1.683l-.727-.727c-1.397.834-2.994 1.41-4.676 1.41-2.592 0-4.975-1.344-6.733-2.903A13 13 0 0 1 3.21 13.31a6.4 6.4 0 0 1-.538-.917c-.124-.27-.157-.433-.157-.498 0-.055.032-.208.164-.473.125-.25.316-.553.57-.893.51-.678 1.247-1.469 2.146-2.221.446-.374.927-.734 1.436-1.064z"/><path fill="#000" d="M6.108 6.522a16 16 0 0 0-1.356 1.019c-.953.797-1.745 1.643-2.303 2.388a7 7 0 0 0-.665 1.046c-.152.303-.27.627-.27.92 0 .284.106.606.248.915.148.322.36.685.624 1.068.528.766 1.286 1.64 2.218 2.467C6.459 17.99 9.069 19.5 12 19.5c1.993 0 3.84-.71 5.403-1.683l-.727-.727c-1.397.834-2.994 1.41-4.676 1.41-2.592 0-4.975-1.344-6.733-2.903A13 13 0 0 1 3.21 13.31a6.4 6.4 0 0 1-.538-.917c-.124-.27-.157-.433-.157-.498 0-.055.032-.208.164-.473.125-.25.316-.553.57-.893.51-.678 1.247-1.469 2.146-2.221.446-.374.927-.734 1.436-1.064z"/><path fill="#000" d="M9.327 9.74a3.5 3.5 0 0 0 4.932 4.933l-.71-.71a2.5 2.5 0 0 1-3.511-3.511z"/><path fill="#000" d="M9.327 9.74a3.5 3.5 0 0 0 4.932 4.933l-.71-.71a2.5 2.5 0 0 1-3.511-3.511z"/><path stroke="#fff" stroke-linecap="round" stroke-linejoin="round" stroke-opacity=".5" d="M6.207 2.793a1 1 0 0 0-1.414 0m1.414 0H4.793m1.414 0 2.015 2.015C9.402 4.316 10.68 4 12 4c2.918 0 5.645 1.566 7.584 3.194.982.825 1.803 1.7 2.387 2.471.292.385.536.76.713 1.103.159.308.33.715.33 1.127 0 .392-.151.79-.3 1.106-.163.347-.392.73-.668 1.126a15 15 0 0 1-2.117 2.388M6.207 2.793 19.93 16.515M4.793 2.793a1 1 0 0 0 0 1.414m0-1.414v1.414m0 0 14 14m-14-14 14 14m0 0a1 1 0 0 0 1.414 0m-1.414 0h1.414m0 0a1 1 0 0 0 0-1.414m0 1.414v-1.414m0 0-.278-.278m.278.278-.278-.278m-2.262 1.727a.5.5 0 0 0 .09-.778l-.728-.728a.5.5 0 0 0-.61-.075C15.076 17.463 13.567 18 12 18c-2.422 0-4.692-1.262-6.4-2.777a12.6 12.6 0 0 1-1.98-2.197l-.398.275.398-.275a6 6 0 0 1-.495-.842l-.454.209.454-.209a2 2 0 0 1-.106-.282l.004-.015a2 2 0 0 1 .102-.241c.108-.216.282-.494.524-.817.483-.645 1.194-1.408 2.065-2.138.433-.361.898-.71 1.388-1.028a.5.5 0 0 0 .081-.773l-.721-.721a.5.5 0 0 0-.632-.062c-.499.334-.967.69-1.399 1.05-.98.82-1.8 1.694-2.383 2.473l.4.3-.4-.3a7.7 7.7 0 0 0-.711 1.12c-.161.323-.323.733-.323 1.145 0 .394.143.795.293 1.123.163.356.391.744.667 1.144.553.8 1.338 1.705 2.298 2.557C6.175 18.407 8.9 20 12 20c2.112 0 4.05-.751 5.667-1.758M9.68 9.387a.5.5 0 0 0-.735.03 4 4 0 0 0 5.637 5.637.5.5 0 0 0 .03-.734l-.71-.71a.5.5 0 0 0-.663-.04 2 2 0 0 1-2.809-2.809.5.5 0 0 0-.04-.663zm1.772-1.35L9.779 6.365A7.4 7.4 0 0 1 12 6c2.24 0 4.519 1.231 6.298 2.725.876.737 1.592 1.504 2.079 2.148.245.322.42.598.529.81.053.103.082.175.098.22-.016.05-.045.13-.099.245a6 6 0 0 1-.5.834 13 13 0 0 1-1.892 2.117l-2.55-2.55q.036-.27.037-.549a4 4 0 0 0-4.548-3.963m9.566 3.913q0 .003 0 0"/></svg>