<svg xmlns="http://www.w3.org/2000/svg" width="24" height="24" fill="none"><path fill="#000" fill-rule="evenodd" d="M8.035 4.588C7.038 5.252 6.5 6.115 6.5 7v1.5h11V7c0-.885-.538-1.748-1.535-2.412C14.972 3.926 13.572 3.5 12 3.5s-2.972.426-3.965 1.088M18.5 8.5V7c0-1.324-.805-2.461-1.98-3.244C15.341 2.97 13.742 2.5 12 2.5s-3.341.47-4.52 1.256C6.305 4.539 5.5 5.676 5.5 7v1.5H3a.5.5 0 0 0-.5.5v11a.5.5 0 0 0 .5.5h18a.5.5 0 0 0 .5-.5V9a.5.5 0 0 0-.5-.5zm-15 1v10h17v-10zm8.5 3a.5.5 0 0 1 .5.5v3a.5.5 0 0 1-1 0v-3a.5.5 0 0 1 .5-.5" clip-rule="evenodd"/><path fill="#000" fill-rule="evenodd" d="M8.035 4.588C7.038 5.252 6.5 6.115 6.5 7v1.5h11V7c0-.885-.538-1.748-1.535-2.412C14.972 3.926 13.572 3.5 12 3.5s-2.972.426-3.965 1.088M18.5 8.5V7c0-1.324-.805-2.461-1.98-3.244C15.341 2.97 13.742 2.5 12 2.5s-3.341.47-4.52 1.256C6.305 4.539 5.5 5.676 5.5 7v1.5H3a.5.5 0 0 0-.5.5v11a.5.5 0 0 0 .5.5h18a.5.5 0 0 0 .5-.5V9a.5.5 0 0 0-.5-.5zm-15 1v10h17v-10zm8.5 3a.5.5 0 0 1 .5.5v3a.5.5 0 0 1-1 0v-3a.5.5 0 0 1 .5-.5" clip-rule="evenodd"/><path stroke="#fff" stroke-linecap="round" stroke-linejoin="round" stroke-opacity=".5" d="M7 7c0-.667.406-1.392 1.312-1.996C9.212 4.404 10.513 4 12 4s2.788.404 3.688 1.004C16.594 5.608 17 6.334 17 7v1H7zm12 1V7c0-1.543-.939-2.818-2.203-3.66C15.526 2.492 13.827 2 12 2s-3.526.492-4.797 1.34C5.939 4.182 5 5.457 5 7v1H3a1 1 0 0 0-1 1v11a1 1 0 0 0 1 1h18a1 1 0 0 0 1-1V9a1 1 0 0 0-1-1zM4 19v-9h16v9zm9-6a1 1 0 1 0-2 0v3a1 1 0 1 0 2 0z"/></svg>