<svg xmlns="http://www.w3.org/2000/svg" width="24" height="24" fill="none"><path fill="#000" fill-rule="evenodd" d="M5.636 5.136h2.828a.5.5 0 0 1 0 1h-1.62L12 11.293l5.157-5.157h-1.621a.5.5 0 0 1 0-1h2.828a.5.5 0 0 1 .5.5v2.828a.5.5 0 0 1-1 0v-1.62L12.707 12l5.157 5.157v-1.621a.5.5 0 1 1 1 0v2.828a.5.5 0 0 1-.5.5h-2.828a.5.5 0 0 1 0-1h1.62L12 12.707l-5.157 5.157h1.621a.5.5 0 1 1 0 1H5.636a.5.5 0 0 1-.5-.5v-2.828a.5.5 0 0 1 1 0v1.62L11.293 12 6.136 6.843v1.621a.5.5 0 0 1-1 0V5.636a.5.5 0 0 1 .5-.5" clip-rule="evenodd"/><path stroke="#fff" stroke-opacity=".5" d="M8.464 4.636H5.636a1 1 0 0 0-1 1v2.828a1 1 0 1 0 2 0V8.05l3.95 3.95-3.95 3.95v-.414a1 1 0 0 0-2 0v2.828a1 1 0 0 0 1 1h2.828a1 1 0 0 0 0-2H8.05l3.95-3.95 3.95 3.95h-.414a1 1 0 1 0 0 2h2.828a1 1 0 0 0 1-1v-2.828a1 1 0 0 0-2 0v.414L13.414 12l3.95-3.95v.414a1 1 0 1 0 2 0V5.636a1 1 0 0 0-1-1h-2.828a1 1 0 1 0 0 2h.414L12 10.586l-3.95-3.95h.414a1 1 0 0 0 0-2Z"/></svg>