<svg xmlns="http://www.w3.org/2000/svg" width="24" height="24" fill="none"><path fill="#000" fill-rule="evenodd" d="M11.646 2.646a.5.5 0 0 1 .708 0l2 2a.5.5 0 0 1-.708.708L12.5 4.207V11.5h7.293l-1.147-1.146a.5.5 0 0 1 .708-.708l2 2a.5.5 0 0 1 0 .708l-2 2a.5.5 0 0 1-.708-.708l1.147-1.146H12.5v7.293l1.146-1.147a.5.5 0 0 1 .708.708l-2 2a.5.5 0 0 1-.708 0l-2-2a.5.5 0 0 1 .708-.708l1.146 1.147V12.5H4.207l1.147 1.146a.5.5 0 0 1-.708.708l-2-2a.5.5 0 0 1 0-.708l2-2a.5.5 0 1 1 .708.708L4.207 11.5H11.5V4.207l-1.146 1.147a.5.5 0 0 1-.708-.708z" clip-rule="evenodd"/><path stroke="#fff" stroke-opacity=".5" d="m12.707 2.293-.353.353.353-.353a1 1 0 0 0-1.414 0l.353.353-.353-.353-2 2a1 1 0 0 0 1.414 1.414L11 5.414V11H5.414l.293-.293a1 1 0 0 0-1.414-1.414l-2 2a1 1 0 0 0 0 1.414l2 2a1 1 0 0 0 1.414-1.414l-.353.353.353-.353L5.414 13H11v5.586l-.293-.293a1 1 0 0 0-1.414 1.414l2 2a1 1 0 0 0 1.414 0l2-2a1 1 0 0 0 0-1.414l-.353.353.353-.353a1 1 0 0 0-1.414 0l-.293.293V13h5.586l.06.646c-.744.037-.744.67-.353 1.061l.353-.353-.353.353a1 1 0 0 0 1.414 0l2-2a1 1 0 0 0 0-1.414l-2-2a1 1 0 1 0-1.414 1.414l.293.293H13V5.414l.293.293.353-.353-.353.353a1 1 0 0 0 1.414 0l-.353-.353.353.353a1 1 0 0 0 0-1.414z"/></svg>