<svg xmlns="http://www.w3.org/2000/svg" width="24" height="24" fill="none"><path fill="#000" fill-rule="evenodd" d="M11.646 2.646a.5.5 0 0 1 .708 0l2 2a.5.5 0 0 1-.708.708L12.5 4.207v15.586l1.146-1.147a.5.5 0 0 1 .708.708l-2 2a.5.5 0 0 1-.708 0l-2-2a.5.5 0 0 1 .708-.708l1.146 1.147V4.207l-1.146 1.147a.5.5 0 0 1-.708-.708z" clip-rule="evenodd"/><path stroke="#fff" stroke-opacity=".5" d="m9.293 18.293.353.353-.353-.353a1 1 0 0 0 0 1.414l.353-.353-.353.353 2 2a1 1 0 0 0 1.414 0l2-2a1 1 0 0 0-1.414-1.414l-.293.293V5.414l.293.293a1 1 0 1 0 1.414-1.414l-2-2a1 1 0 0 0-1.414 0l-2 2a1 1 0 0 0 1.414 1.414L11 5.414v13.172l-.293-.293a1 1 0 0 0-1.414 0Z"/></svg>