<svg xmlns="http://www.w3.org/2000/svg" width="24" height="24" fill="none"><path fill="#000" fill-rule="evenodd" d="M5.354 9.646a.5.5 0 0 1 0 .708L4.207 11.5h15.586l-1.147-1.146a.5.5 0 0 1 .708-.708l2 2a.5.5 0 0 1 0 .708l-2 2a.5.5 0 0 1-.708-.708l1.147-1.146H4.207l1.147 1.146a.5.5 0 0 1-.708.708l-2-2a.5.5 0 0 1 0-.708l2-2a.5.5 0 0 1 .708 0" clip-rule="evenodd"/><path stroke="#fff" stroke-opacity=".5" d="m19.707 9.293-.353.353.353-.353a1 1 0 0 0-1.414 0l.302.302-.302-.302a1 1 0 0 0 0 1.414l.293.293H5.414l.293-.293a1 1 0 0 0-1.414-1.414l-2 2a1 1 0 0 0 0 1.414l2 2a1 1 0 0 0 1.414-1.414L5.414 13h13.172l-.293.293a1 1 0 0 0 1.414 1.414l2-2a1 1 0 0 0 0-1.414z"/></svg>