<svg xmlns="http://www.w3.org/2000/svg" width="24" height="24" fill="none"><path fill="#000" fill-rule="evenodd" d="M15.036 5.636a.5.5 0 0 1 .5-.5h2.828a.5.5 0 0 1 .5.5v2.828a.5.5 0 0 1-1 0v-1.62l-11.02 11.02h1.62a.5.5 0 1 1 0 1H5.636a.5.5 0 0 1-.5-.5v-2.828a.5.5 0 0 1 1 0v1.62l11.02-11.02h-1.62a.5.5 0 0 1-.5-.5" clip-rule="evenodd"/><path stroke="#fff" stroke-opacity=".5" d="M15.536 4.636a1 1 0 0 0 0 2h.414L6.636 15.95v-.414a1 1 0 0 0-2 0v2.828a1 1 0 0 0 1 1h2.828a1 1 0 0 0 0-2H8.05l9.314-9.314v.414a1 1 0 1 0 2 0V5.636a1 1 0 0 0-1-1z"/></svg>