<svg xmlns="http://www.w3.org/2000/svg" width="24" height="24" fill="none"><path fill="#000" fill-rule="evenodd" d="M5.636 5.136h2.828a.5.5 0 0 1 0 1h-1.62l11.02 11.02v-1.62a.5.5 0 1 1 1 0v2.828a.5.5 0 0 1-.5.5h-2.828a.5.5 0 0 1 0-1h1.62L6.137 6.844v1.62a.5.5 0 0 1-1 0V5.636a.5.5 0 0 1 .5-.5" clip-rule="evenodd"/><path stroke="#fff" stroke-opacity=".5" d="M8.464 4.636H5.636a1 1 0 0 0-1 1v2.828a1 1 0 1 0 2 0V8.05l9.314 9.314h-.414a1 1 0 0 0 0 2h2.828a1 1 0 0 0 1-1v-2.828a1 1 0 0 0-2 0v.414L8.05 6.636h.414a1 1 0 0 0 0-2Z"/></svg>