<svg xmlns="http://www.w3.org/2000/svg" width="24" height="24" fill="none"><path fill="#000" fill-rule="evenodd" d="M19 3.5a1.5 1.5 0 1 0 0 3 1.5 1.5 0 0 0 0-3M16.5 5a2.5 2.5 0 1 1 1.837 2.411l-2.78 4.633a2.5 2.5 0 1 1-3.643.578l-2.219-2.22a2.5 2.5 0 0 1-1.315.02l-2.264 6.34a2.5 2.5 0 1 1-.97-.258l2.33-6.522a2.5 2.5 0 1 1 3.14-.073l2.005 2.005a2.5 2.5 0 0 1 2.043-.325l2.78-4.633A2.5 2.5 0 0 1 16.5 5M9 6.5a1.5 1.5 0 1 0 0 3 1.5 1.5 0 0 0 0-3m5 6a1.5 1.5 0 1 0 0 3 1.5 1.5 0 0 0 0-3m-9 5a1.5 1.5 0 1 0 0 3 1.5 1.5 0 0 0 0-3" clip-rule="evenodd"/><path fill="#000" fill-rule="evenodd" d="M19 3.5a1.5 1.5 0 1 0 0 3 1.5 1.5 0 0 0 0-3M16.5 5a2.5 2.5 0 1 1 1.837 2.411l-2.78 4.633a2.5 2.5 0 1 1-3.643.578l-2.219-2.22a2.5 2.5 0 0 1-1.315.02l-2.264 6.34a2.5 2.5 0 1 1-.97-.258l2.33-6.522a2.5 2.5 0 1 1 3.14-.073l2.005 2.005a2.5 2.5 0 0 1 2.043-.325l2.78-4.633A2.5 2.5 0 0 1 16.5 5M9 6.5a1.5 1.5 0 1 0 0 3 1.5 1.5 0 0 0 0-3m5 6a1.5 1.5 0 1 0 0 3 1.5 1.5 0 0 0 0-3m-9 5a1.5 1.5 0 1 0 0 3 1.5 1.5 0 0 0 0-3" clip-rule="evenodd"/><path stroke="#fff" stroke-linecap="round" stroke-linejoin="round" stroke-opacity=".5" d="M18 5a1 1 0 1 1 2 0 1 1 0 0 1-2 0m1-3a3 3 0 0 0-2.194 5.046l-2.39 3.983a3 3 0 0 0-1.71.264l-1.388-1.389a3 3 0 1 0-4.428.229l-2.097 5.874a3 3 0 1 0 1.931.538l1.986-5.559a3 3 0 0 0 .828-.034l1.755 1.755a3 3 0 1 0 4.901-.753l2.39-3.983q.204.03.416.029a3 3 0 1 0 0-6M8 8a1 1 0 1 1 2 0 1 1 0 0 1-2 0m5 6a1 1 0 1 1 2 0 1 1 0 0 1-2 0m-9 5a1 1 0 1 1 2 0 1 1 0 0 1-2 0"/></svg>