<svg xmlns="http://www.w3.org/2000/svg" width="24" height="24" fill="none"><path fill="#000" fill-rule="evenodd" d="M5.646 5.646a.5.5 0 0 1 .708 0c1.181 1.182 3.265 1.867 5.492 2.216 2.204.345 4.44.345 5.816.24a.5.5 0 0 1 .512.34l1.3 3.9a.5.5 0 0 1-.12.512l-6.5 6.5a.5.5 0 0 1-.512.12l-3.9-1.3a.5.5 0 0 1-.34-.512 27 27 0 0 0-.24-5.816c-.349-2.227-1.034-4.31-2.216-5.492a.5.5 0 0 1 0-.708m2.552 3.26a18 18 0 0 1 .652 2.785c.328 2.095.357 4.209.274 5.657l3.241 1.08 6.063-6.063-1.08-3.24a28 28 0 0 1-5.657-.275 18 18 0 0 1-2.786-.652l3.449 3.448a.5.5 0 0 1-.708.708zm12.156 4.74a.5.5 0 0 1 0 .708l-6 6a.5.5 0 0 1-.708-.708l6-6a.5.5 0 0 1 .708 0" clip-rule="evenodd"/><path stroke="#fff" stroke-linecap="round" stroke-linejoin="round" stroke-opacity=".5" d="M6.707 5.293a1 1 0 0 0-1.414 1.414c1.063 1.063 1.73 3.01 2.075 5.217.338 2.159.338 4.355.235 5.7a1 1 0 0 0 .68 1.025l3.9 1.3a1 1 0 0 0 .827-.089 1 1 0 0 0 1.697.847l6-6a1 1 0 0 0-.847-1.697 1 1 0 0 0 .089-.826l-1.3-3.9a1 1 0 0 0-1.026-.681c-1.344.103-3.54.103-5.7-.235-2.206-.345-4.153-1.012-5.216-2.075m2.637 6.321a21 21 0 0 0-.19-1.045l2.139 2.138a1 1 0 0 0 1.414-1.414L10.57 9.154q.524.11 1.045.19a28.6 28.6 0 0 0 5.38.298l.862 2.588-5.626 5.626-2.588-.863c.059-1.451.009-3.42-.298-5.379"/></svg>