<svg xmlns="http://www.w3.org/2000/svg" width="24" height="24" fill="none"><path fill="#000" fill-rule="evenodd" d="M18.588 2.41a.5.5 0 0 1 .354.146l2.412 2.412a.5.5 0 0 1 0 .707L19.749 7.28l-.003.003-.004.004L8.489 18.54a.5.5 0 0 1-.167.11l-4.02 1.608a.5.5 0 0 1-.65-.65l1.608-4.02a.5.5 0 0 1 .11-.168L18.234 2.556a.5.5 0 0 1 .354-.146m.804 3.813.9-.901-1.704-1.705-.9.9zm-2.412-.998 1.705 1.705-10.55 10.549-1.704-1.705zM5.907 16.664l-.894 2.232 2.233-.893z" clip-rule="evenodd"/><path fill="#000" fill-rule="evenodd" d="M18.588 2.41a.5.5 0 0 1 .354.146l2.412 2.412a.5.5 0 0 1 0 .707L19.749 7.28l-.003.003-.004.004L8.489 18.54a.5.5 0 0 1-.167.11l-4.02 1.608a.5.5 0 0 1-.65-.65l1.608-4.02a.5.5 0 0 1 .11-.168L18.234 2.556a.5.5 0 0 1 .354-.146m.804 3.813.9-.901-1.704-1.705-.9.9zm-2.412-.998 1.705 1.705-10.55 10.549-1.704-1.705zM5.907 16.664l-.894 2.232 2.233-.893z" clip-rule="evenodd"/><path stroke="#fff" stroke-linecap="round" stroke-linejoin="round" stroke-opacity=".5" d="m20.1 7.637.003-.004.003-.003 1.601-1.601a1 1 0 0 0 0-1.414l-2.412-2.412a1 1 0 0 0-1.414 0L5.017 15.067l.353.353-.353-.353a1 1 0 0 0-.222.336l-1.608 4.02a1 1 0 0 0 1.3 1.3l4.02-1.609a1 1 0 0 0 .336-.22l11.25-11.25.003-.003zm-.514-2.315-.194.194-.998-.998.194-.194zM7.138 15.774l9.842-9.842.998.998-9.842 9.842zm-.782 2.047-.445.178.178-.446z"/></svg>