<svg xmlns="http://www.w3.org/2000/svg" width="24" height="24" fill="none"><path fill="#000" fill-rule="evenodd" d="M5.354 1.646a.5.5 0 0 1 0 .708L4.207 3.5h7.852c4.665 0 8.441 3.81 8.441 8.5s-3.776 8.5-8.441 8.5H3v-1h9.059c4.106 0 7.441-3.354 7.441-7.5s-3.335-7.5-7.441-7.5H4.207l1.147 1.146a.5.5 0 0 1-.708.708L2.293 4l2.353-2.354a.5.5 0 0 1 .708 0" clip-rule="evenodd"/><path fill="#000" fill-rule="evenodd" d="M5.354 1.646a.5.5 0 0 1 0 .708L4.207 3.5h7.852c4.665 0 8.441 3.81 8.441 8.5s-3.776 8.5-8.441 8.5H3v-1h9.059c4.106 0 7.441-3.354 7.441-7.5s-3.335-7.5-7.441-7.5H4.207l1.147 1.146a.5.5 0 0 1-.708.708L2.293 4l2.353-2.354a.5.5 0 0 1 .708 0" clip-rule="evenodd"/><path stroke="#fff" stroke-linecap="round" stroke-linejoin="round" stroke-opacity=".5" d="m5.414 3 .293-.293a1 1 0 0 0-1.414-1.414L1.939 3.646a.5.5 0 0 0 0 .708l2.354 2.353a1 1 0 0 0 1.414-1.414L5.414 5h6.645C15.886 5 19 8.127 19 12s-3.114 7-6.941 7H3a.5.5 0 0 0-.5.5v1a.5.5 0 0 0 .5.5h9.059C17.004 21 21 16.964 21 12s-3.996-9-8.941-9z"/></svg>