<svg xmlns="http://www.w3.org/2000/svg" width="24" height="24" fill="none"><path fill="#000" fill-rule="evenodd" d="M12 4.5c-4.156 0-7.5 3.271-7.5 7.278 0 2.008.839 3.83 2.2 5.149v-1.26a.5.5 0 1 1 1 0V18a.5.5 0 0 1-.5.5H4.8a.5.5 0 0 1 0-1h1.058A8.14 8.14 0 0 1 3.5 11.778C3.5 7.193 7.319 3.5 12 3.5s8.5 3.693 8.5 8.278c0 2.222-.9 4.237-2.358 5.722H19.2a.5.5 0 0 1 0 1h-2.4a.5.5 0 0 1-.5-.5v-2.334a.5.5 0 1 1 1 0v1.26c1.361-1.319 2.2-3.14 2.2-5.148C19.5 7.77 16.156 4.5 12 4.5" clip-rule="evenodd"/><path stroke="#fff" stroke-linecap="round" stroke-linejoin="round" stroke-opacity=".5" d="M5 11.778C5 8.06 8.108 5 12 5s7 3.06 7 6.778a6.6 6.6 0 0 1-1.204 3.8 1 1 0 0 0-1.996.088V18a1 1 0 0 0 1 1h2.4a1 1 0 0 0 .034-2A8.6 8.6 0 0 0 21 11.779C21 6.903 16.944 3 12 3s-9 3.903-9 8.778c0 1.959.659 3.766 1.766 5.223A1 1 0 0 0 4.8 19h2.4a1 1 0 0 0 1-1v-2.334a1 1 0 0 0-1.996-.087A6.6 6.6 0 0 1 5 11.777"/></svg>