<svg xmlns="http://www.w3.org/2000/svg" width="24" height="24" fill="none"><path fill="#000" fill-rule="evenodd" d="M4.553 3.776A.5.5 0 0 1 5 3.5h14a.5.5 0 0 1 .416.223l1 1.5a.5.5 0 1 1-.832.554L18.732 4.5H12.5v16H14a.5.5 0 0 1 0 1h-4a.5.5 0 0 1 0-1h1.5v-16H5.309l-.862 1.724a.5.5 0 1 1-.894-.448z" clip-rule="evenodd"/><path stroke="#fff" stroke-linecap="round" stroke-linejoin="round" stroke-opacity=".5" d="M5 3a1 1 0 0 0-.894.553l-1 2a1 1 0 1 0 1.788.894L5.618 5H11v15h-1a1 1 0 1 0 0 2h4a1 1 0 1 0 0-2h-1V5h5.465l.703 1.055a1 1 0 1 0 1.664-1.11l-1-1.5A1 1 0 0 0 19 3z"/></svg>