<svg xmlns="http://www.w3.org/2000/svg" width="24" height="24" fill="none"><path fill="#000" fill-rule="evenodd" d="M5.5 4a.5.5 0 0 1 .5-.5h12a.5.5 0 0 1 .5.5v1.5H21a.5.5 0 0 1 0 1h-1.5V21a.5.5 0 0 1-.5.5H5a.5.5 0 0 1-.5-.5V6.5H3a.5.5 0 0 1 0-1h2.5zm1 1.5h11v-1h-11zm-1 1v14h13v-14zm3.5 2a.5.5 0 0 1 .5.5v9a.5.5 0 0 1-1 0V9a.5.5 0 0 1 .5-.5m6 0a.5.5 0 0 1 .5.5v9a.5.5 0 0 1-1 0V9a.5.5 0 0 1 .5-.5" clip-rule="evenodd"/><path fill="#000" fill-rule="evenodd" d="M5.5 4a.5.5 0 0 1 .5-.5h12a.5.5 0 0 1 .5.5v1.5H21a.5.5 0 0 1 0 1h-1.5V21a.5.5 0 0 1-.5.5H5a.5.5 0 0 1-.5-.5V6.5H3a.5.5 0 0 1 0-1h2.5zm1 1.5h11v-1h-11zm-1 1v14h13v-14zm3.5 2a.5.5 0 0 1 .5.5v9a.5.5 0 0 1-1 0V9a.5.5 0 0 1 .5-.5m6 0a.5.5 0 0 1 .5.5v9a.5.5 0 0 1-1 0V9a.5.5 0 0 1 .5-.5" clip-rule="evenodd"/><path stroke="#fff" stroke-linecap="round" stroke-linejoin="round" stroke-opacity=".5" d="M6 3a1 1 0 0 0-1 1v1H3a1 1 0 0 0 0 2h1v14a1 1 0 0 0 1 1h14a1 1 0 0 0 1-1V7h1a1 1 0 1 0 0-2h-2V4a1 1 0 0 0-1-1zm0 17V7h12v13zm4-11a1 1 0 1 0-2 0v9a1 1 0 1 0 2 0zm6 0a1 1 0 1 0-2 0v9a1 1 0 1 0 2 0z"/></svg>