<svg xmlns="http://www.w3.org/2000/svg" width="24" height="24" fill="none"><path fill="#000" fill-rule="evenodd" d="M17.646 1.646a.5.5 0 0 1 .708 0L20.707 4l-2.353 2.354a.5.5 0 0 1-.708-.708L18.793 4.5H10.94C6.835 4.5 3.5 7.854 3.5 12s3.335 7.5 7.441 7.5H20v1h-9.059C6.276 20.5 2.5 16.69 2.5 12s3.776-8.5 8.441-8.5h7.852l-1.147-1.146a.5.5 0 0 1 0-.708" clip-rule="evenodd"/><path fill="#000" fill-rule="evenodd" d="M17.646 1.646a.5.5 0 0 1 .708 0L20.707 4l-2.353 2.354a.5.5 0 0 1-.708-.708L18.793 4.5H10.94C6.835 4.5 3.5 7.854 3.5 12s3.335 7.5 7.441 7.5H20v1h-9.059C6.276 20.5 2.5 16.69 2.5 12s3.776-8.5 8.441-8.5h7.852l-1.147-1.146a.5.5 0 0 1 0-.708" clip-rule="evenodd"/><path stroke="#fff" stroke-linecap="round" stroke-linejoin="round" stroke-opacity=".5" d="m18.707 1.293-.353.353za1 1 0 0 0-1.414 0l.353.353-.353-.353a1 1 0 0 0 0 1.414l.293.293H10.94C5.996 3 2 7.036 2 12s3.996 9 8.941 9H20a.5.5 0 0 0 .5-.5v-1a.5.5 0 0 0-.5-.5h-9.059C7.115 19 4 15.873 4 12s3.115-7 6.941-7h6.645l-.293.293a1 1 0 0 0 1.414 1.414l2.354-2.353a.5.5 0 0 0 0-.708z"/></svg>